<?xml version="1.0" encoding="UTF-8"?>
<svg version="1.1" xmlns="http://www.w3.org/2000/svg" width="512" height="512">
<path d="M0 0 C1.16676663 -0.00384115 2.33353326 -0.00768229 3.53565645 -0.01163983 C5.44448146 -0.01034011 5.44448146 -0.01034011 7.39186859 -0.00901413 C8.76475339 -0.01159965 10.13763744 -0.01461333 11.51052046 -0.01801753 C15.27806522 -0.0260691 19.04559091 -0.02787608 22.81314325 -0.028615 C26.8787884 -0.03046881 30.94442372 -0.03801789 35.01006317 -0.04475021 C43.8987928 -0.05832184 52.78751791 -0.06435667 61.67625618 -0.06876087 C67.23001577 -0.07152576 72.78377363 -0.07576361 78.33753204 -0.08026505 C93.7238911 -0.0924571 109.11024877 -0.10275594 124.49661255 -0.10614014 C125.48106211 -0.1063597 126.46551167 -0.10657927 127.47979304 -0.10680549 C128.95994444 -0.10713291 128.95994444 -0.10713291 130.46999788 -0.10746694 C132.46946748 -0.1079104 134.46893708 -0.10835696 136.46840668 -0.10880661 C137.46020666 -0.10902804 138.45200663 -0.10924947 139.47386116 -0.10947761 C155.53336103 -0.11342299 171.59281546 -0.13086936 187.65229779 -0.15416613 C204.15299823 -0.17790904 220.65367589 -0.19034336 237.15439367 -0.19150805 C246.41373768 -0.19242326 255.6730225 -0.19813645 264.93235016 -0.21632767 C272.81938444 -0.23176849 280.70634125 -0.23682577 288.59338778 -0.22858956 C292.61335123 -0.22469687 296.63315884 -0.22554462 300.65310287 -0.23964691 C304.34219628 -0.25246947 308.03101807 -0.25111598 311.72011155 -0.2390562 C313.66796254 -0.23620197 315.6158186 -0.24797143 317.56363153 -0.26047826 C339.06304755 -0.14118355 358.3983505 7.34058302 376.08461761 19.13142776 C376.08461761 19.79142776 376.08461761 20.45142776 376.08461761 21.13142776 C377.12875824 21.44660355 377.12875824 21.44660355 378.19399261 21.76814651 C381.91015866 23.52077077 384.4937663 26.04911756 387.33461761 28.94392776 C387.90526947 29.52360306 388.47592133 30.10327835 389.06386566 30.70051956 C405.15157199 47.43997148 417.18677834 71.45597505 417.21604538 95.04681015 C417.21988652 96.21357678 417.22372767 97.38034341 417.22768521 98.5824666 C417.22681873 99.85501661 417.22595225 101.12756661 417.22505951 102.43867874 C417.22764503 103.81156354 417.23065871 105.18444759 417.23406291 106.55733061 C417.24211448 110.32487537 417.24392146 114.09240106 417.24466038 117.8599534 C417.24651419 121.92559855 417.25406327 125.99123387 417.26079559 130.05687332 C417.27436722 138.94560295 417.28040205 147.83432806 417.28480625 156.72306633 C417.28757114 162.27682592 417.29180899 167.83058378 417.29631042 173.38434219 C417.30850248 188.77070125 417.31880132 204.15705892 417.32218552 219.5434227 C417.32240508 220.52787226 417.32262465 221.51232182 417.32285087 222.52660319 C417.32306915 223.51337079 417.32328742 224.50013839 417.32351232 225.51680803 C417.32395578 227.51627763 417.32440234 229.51574723 417.32485199 231.51521683 C417.32507342 232.50701681 417.32529485 233.49881678 417.32552299 234.52067131 C417.32946837 250.58017118 417.34691474 266.63962561 417.37021151 282.69910794 C417.39395442 299.19980838 417.40638874 315.70048604 417.40755343 332.20120382 C417.40846864 341.46054783 417.41418183 350.71983265 417.43237305 359.97916031 C417.44781387 367.86619459 417.45287115 375.7531514 417.44463494 383.64019793 C417.44074225 387.66016138 417.44158999 391.67996899 417.45569229 395.69991302 C417.46851485 399.38900643 417.46716136 403.07782822 417.45510158 406.7669217 C417.45224735 408.71477269 417.46401681 410.66262875 417.47652364 412.61044168 C417.35722893 434.1098577 409.87546236 453.44516065 398.08461761 471.13142776 C397.42461761 471.13142776 396.76461761 471.13142776 396.08461761 471.13142776 C395.87450043 471.82752151 395.66438324 472.52361526 395.44789886 473.24080276 C393.69527461 476.95696881 391.16692782 479.54057645 388.27211761 482.38142776 C387.69244232 482.95207962 387.11276703 483.52273148 386.51552582 484.11067581 C369.7760739 500.19838214 345.76007033 512.23358849 322.16923523 512.26285553 C320.41908529 512.26861725 320.41908529 512.26861725 318.63357878 512.27449536 C316.72475377 512.27319564 316.72475377 512.27319564 314.77736664 512.27186966 C313.40448184 512.27445518 312.03159779 512.27746886 310.65871477 512.28087306 C306.89117001 512.28892463 303.12364432 512.29073161 299.35609198 512.29147053 C295.29044683 512.29332434 291.22481151 512.30087342 287.15917206 512.30760574 C278.27044243 512.32117737 269.38171732 512.3272122 260.49297905 512.3316164 C254.93921946 512.33438129 249.3854616 512.33861914 243.83170319 512.34312057 C228.44534413 512.35531263 213.05898646 512.36561147 197.67262268 512.36899567 C196.68817312 512.36921523 195.70372356 512.3694348 194.68944219 512.36966102 C193.70267459 512.3698793 192.71590699 512.37009757 191.69923735 512.37032247 C189.69976775 512.37076593 187.70029815 512.37121249 185.70082855 512.37166214 C184.70902857 512.37188357 183.7172286 512.372105 182.69537407 512.37233314 C166.6358742 512.37627852 150.57641977 512.39372489 134.51693743 512.41702166 C118.016237 512.44076457 101.51555934 512.45319889 85.01484156 512.45436358 C75.75549755 512.45527879 66.49621273 512.46099198 57.23688507 512.4791832 C49.34985079 512.49462402 41.46289398 512.4996813 33.57584745 512.49144509 C29.555884 512.4875524 25.53607639 512.48840014 21.51613235 512.50250244 C17.82703895 512.515325 14.13821715 512.51397151 10.44912368 512.50191173 C8.50127269 512.4990575 6.55341663 512.51082696 4.60560369 512.52333379 C-16.89381232 512.40403908 -36.22911527 504.92227251 -53.91538239 493.13142776 C-53.91538239 492.47142776 -53.91538239 491.81142776 -53.91538239 491.13142776 C-54.61147614 490.92131058 -55.30756989 490.71119339 -56.02475739 490.49470901 C-59.74092343 488.74208476 -62.32453107 486.21373797 -65.16538239 483.31892776 C-65.73603424 482.73925247 -66.3066861 482.15957718 -66.89463043 481.56233597 C-82.98233676 464.82288405 -95.01754311 440.80688048 -95.04681015 417.21604538 C-95.0506513 416.04927875 -95.05449244 414.88251212 -95.05844998 413.68038893 C-95.0575835 412.40783892 -95.05671702 411.13528892 -95.05582428 409.82417679 C-95.0584098 408.45129199 -95.06142348 407.07840794 -95.06482768 405.70552492 C-95.07287925 401.93798016 -95.07468623 398.17045447 -95.07542515 394.40290213 C-95.07727896 390.33725698 -95.08482804 386.27162166 -95.09156036 382.20598221 C-95.10513199 373.31725258 -95.11116682 364.42852747 -95.11557102 355.5397892 C-95.11833591 349.98602961 -95.12257376 344.43227175 -95.1270752 338.87851334 C-95.13926725 323.49215428 -95.14956609 308.10579661 -95.15295029 292.71943283 C-95.15316985 291.73498327 -95.15338942 290.75053371 -95.15361564 289.73625234 C-95.15383392 288.74948474 -95.15405219 287.76271714 -95.15427709 286.7460475 C-95.15472055 284.7465779 -95.15516711 282.7471083 -95.15561676 280.7476387 C-95.15583819 279.75583872 -95.15605962 278.76403875 -95.15628776 277.74218422 C-95.16023314 261.68268435 -95.17767951 245.62322992 -95.20097628 229.56374758 C-95.22471919 213.06304715 -95.23715351 196.56236949 -95.2383182 180.06165171 C-95.23923341 170.8023077 -95.2449466 161.54302288 -95.26313782 152.28369522 C-95.27857864 144.39666094 -95.28363592 136.50970413 -95.27539971 128.6226576 C-95.27150702 124.60269415 -95.27235477 120.58288654 -95.28645706 116.5629425 C-95.29927962 112.8738491 -95.29792613 109.1850273 -95.28586635 105.49593383 C-95.28301212 103.54808284 -95.29478158 101.60022678 -95.30728841 99.65241385 C-95.1879937 78.15299783 -87.70622713 58.81769488 -75.91538239 41.13142776 C-75.25538239 41.13142776 -74.59538239 41.13142776 -73.91538239 41.13142776 C-73.7052652 40.43533401 -73.49514801 39.73924026 -73.27866364 39.02205276 C-71.52603938 35.30588672 -68.9976926 32.72227908 -66.10288239 29.88142776 C-65.52320709 29.31077591 -64.9435318 28.74012405 -64.34629059 28.15217972 C-47.60683867 12.06447339 -23.5908351 0.02926704 0 0 Z " fill="#FDD436" transform="translate(94.9153823852539,-0.13142776489257813)"/>
<path d="M0 0 C1.16676663 -0.00384115 2.33353326 -0.00768229 3.53565645 -0.01163983 C5.44448146 -0.01034011 5.44448146 -0.01034011 7.39186859 -0.00901413 C8.76475339 -0.01159965 10.13763744 -0.01461333 11.51052046 -0.01801753 C15.27806522 -0.0260691 19.04559091 -0.02787608 22.81314325 -0.028615 C26.8787884 -0.03046881 30.94442372 -0.03801789 35.01006317 -0.04475021 C43.8987928 -0.05832184 52.78751791 -0.06435667 61.67625618 -0.06876087 C67.23001577 -0.07152576 72.78377363 -0.07576361 78.33753204 -0.08026505 C93.7238911 -0.0924571 109.11024877 -0.10275594 124.49661255 -0.10614014 C125.48106211 -0.1063597 126.46551167 -0.10657927 127.47979304 -0.10680549 C128.95994444 -0.10713291 128.95994444 -0.10713291 130.46999788 -0.10746694 C132.46946748 -0.1079104 134.46893708 -0.10835696 136.46840668 -0.10880661 C137.46020666 -0.10902804 138.45200663 -0.10924947 139.47386116 -0.10947761 C155.53336103 -0.11342299 171.59281546 -0.13086936 187.65229779 -0.15416613 C204.15299823 -0.17790904 220.65367589 -0.19034336 237.15439367 -0.19150805 C246.41373768 -0.19242326 255.6730225 -0.19813645 264.93235016 -0.21632767 C272.81938444 -0.23176849 280.70634125 -0.23682577 288.59338778 -0.22858956 C292.61335123 -0.22469687 296.63315884 -0.22554462 300.65310287 -0.23964691 C304.34219628 -0.25246947 308.03101807 -0.25111598 311.72011155 -0.2390562 C313.66796254 -0.23620197 315.6158186 -0.24797143 317.56363153 -0.26047826 C339.06304755 -0.14118355 358.3983505 7.34058302 376.08461761 19.13142776 C376.08461761 19.79142776 376.08461761 20.45142776 376.08461761 21.13142776 C377.12875824 21.44660355 377.12875824 21.44660355 378.19399261 21.76814651 C381.91015866 23.52077077 384.4937663 26.04911756 387.33461761 28.94392776 C387.90526947 29.52360306 388.47592133 30.10327835 389.06386566 30.70051956 C405.15157199 47.43997148 417.18677834 71.45597505 417.21604538 95.04681015 C417.21988652 96.21357678 417.22372767 97.38034341 417.22768521 98.5824666 C417.22681873 99.85501661 417.22595225 101.12756661 417.22505951 102.43867874 C417.22764503 103.81156354 417.23065871 105.18444759 417.23406291 106.55733061 C417.24211448 110.32487537 417.24392146 114.09240106 417.24466038 117.8599534 C417.24651419 121.92559855 417.25406327 125.99123387 417.26079559 130.05687332 C417.27436722 138.94560295 417.28040205 147.83432806 417.28480625 156.72306633 C417.28757114 162.27682592 417.29180899 167.83058378 417.29631042 173.38434219 C417.30850248 188.77070125 417.31880132 204.15705892 417.32218552 219.5434227 C417.32240508 220.52787226 417.32262465 221.51232182 417.32285087 222.52660319 C417.32306915 223.51337079 417.32328742 224.50013839 417.32351232 225.51680803 C417.32395578 227.51627763 417.32440234 229.51574723 417.32485199 231.51521683 C417.32507342 232.50701681 417.32529485 233.49881678 417.32552299 234.52067131 C417.32946837 250.58017118 417.34691474 266.63962561 417.37021151 282.69910794 C417.39395442 299.19980838 417.40638874 315.70048604 417.40755343 332.20120382 C417.40846864 341.46054783 417.41418183 350.71983265 417.43237305 359.97916031 C417.44781387 367.86619459 417.45287115 375.7531514 417.44463494 383.64019793 C417.44074225 387.66016138 417.44158999 391.67996899 417.45569229 395.69991302 C417.46851485 399.38900643 417.46716136 403.07782822 417.45510158 406.7669217 C417.45224735 408.71477269 417.46401681 410.66262875 417.47652364 412.61044168 C417.35722893 434.1098577 409.87546236 453.44516065 398.08461761 471.13142776 C397.42461761 471.13142776 396.76461761 471.13142776 396.08461761 471.13142776 C395.87450043 471.82752151 395.66438324 472.52361526 395.44789886 473.24080276 C393.69527461 476.95696881 391.16692782 479.54057645 388.27211761 482.38142776 C387.69244232 482.95207962 387.11276703 483.52273148 386.51552582 484.11067581 C369.7760739 500.19838214 345.76007033 512.23358849 322.16923523 512.26285553 C320.41908529 512.26861725 320.41908529 512.26861725 318.63357878 512.27449536 C316.72475377 512.27319564 316.72475377 512.27319564 314.77736664 512.27186966 C313.40448184 512.27445518 312.03159779 512.27746886 310.65871477 512.28087306 C306.89117001 512.28892463 303.12364432 512.29073161 299.35609198 512.29147053 C295.29044683 512.29332434 291.22481151 512.30087342 287.15917206 512.30760574 C278.27044243 512.32117737 269.38171732 512.3272122 260.49297905 512.3316164 C254.93921946 512.33438129 249.3854616 512.33861914 243.83170319 512.34312057 C228.44534413 512.35531263 213.05898646 512.36561147 197.67262268 512.36899567 C196.68817312 512.36921523 195.70372356 512.3694348 194.68944219 512.36966102 C193.70267459 512.3698793 192.71590699 512.37009757 191.69923735 512.37032247 C189.69976775 512.37076593 187.70029815 512.37121249 185.70082855 512.37166214 C184.70902857 512.37188357 183.7172286 512.372105 182.69537407 512.37233314 C166.6358742 512.37627852 150.57641977 512.39372489 134.51693743 512.41702166 C118.016237 512.44076457 101.51555934 512.45319889 85.01484156 512.45436358 C75.75549755 512.45527879 66.49621273 512.46099198 57.23688507 512.4791832 C49.34985079 512.49462402 41.46289398 512.4996813 33.57584745 512.49144509 C29.555884 512.4875524 25.53607639 512.48840014 21.51613235 512.50250244 C17.82703895 512.515325 14.13821715 512.51397151 10.44912368 512.50191173 C8.50127269 512.4990575 6.55341663 512.51082696 4.60560369 512.52333379 C-16.89381232 512.40403908 -36.22911527 504.92227251 -53.91538239 493.13142776 C-53.91538239 492.47142776 -53.91538239 491.81142776 -53.91538239 491.13142776 C-54.61147614 490.92131058 -55.30756989 490.71119339 -56.02475739 490.49470901 C-59.74092343 488.74208476 -62.32453107 486.21373797 -65.16538239 483.31892776 C-65.73603424 482.73925247 -66.3066861 482.15957718 -66.89463043 481.56233597 C-82.98233676 464.82288405 -95.01754311 440.80688048 -95.04681015 417.21604538 C-95.0506513 416.04927875 -95.05449244 414.88251212 -95.05844998 413.68038893 C-95.0575835 412.40783892 -95.05671702 411.13528892 -95.05582428 409.82417679 C-95.0584098 408.45129199 -95.06142348 407.07840794 -95.06482768 405.70552492 C-95.07287925 401.93798016 -95.07468623 398.17045447 -95.07542515 394.40290213 C-95.07727896 390.33725698 -95.08482804 386.27162166 -95.09156036 382.20598221 C-95.10513199 373.31725258 -95.11116682 364.42852747 -95.11557102 355.5397892 C-95.11833591 349.98602961 -95.12257376 344.43227175 -95.1270752 338.87851334 C-95.13926725 323.49215428 -95.14956609 308.10579661 -95.15295029 292.71943283 C-95.15316985 291.73498327 -95.15338942 290.75053371 -95.15361564 289.73625234 C-95.15383392 288.74948474 -95.15405219 287.76271714 -95.15427709 286.7460475 C-95.15472055 284.7465779 -95.15516711 282.7471083 -95.15561676 280.7476387 C-95.15583819 279.75583872 -95.15605962 278.76403875 -95.15628776 277.74218422 C-95.16023314 261.68268435 -95.17767951 245.62322992 -95.20097628 229.56374758 C-95.22471919 213.06304715 -95.23715351 196.56236949 -95.2383182 180.06165171 C-95.23923341 170.8023077 -95.2449466 161.54302288 -95.26313782 152.28369522 C-95.27857864 144.39666094 -95.28363592 136.50970413 -95.27539971 128.6226576 C-95.27150702 124.60269415 -95.27235477 120.58288654 -95.28645706 116.5629425 C-95.29927962 112.8738491 -95.29792613 109.1850273 -95.28586635 105.49593383 C-95.28301212 103.54808284 -95.29478158 101.60022678 -95.30728841 99.65241385 C-95.1879937 78.15299783 -87.70622713 58.81769488 -75.91538239 41.13142776 C-75.25538239 41.13142776 -74.59538239 41.13142776 -73.91538239 41.13142776 C-73.7052652 40.43533401 -73.49514801 39.73924026 -73.27866364 39.02205276 C-71.52603938 35.30588672 -68.9976926 32.72227908 -66.10288239 29.88142776 C-65.52320709 29.31077591 -64.9435318 28.74012405 -64.34629059 28.15217972 C-47.60683867 12.06447339 -23.5908351 0.02926704 0 0 Z M41.52016449 77.7632637 C40.26918143 78.95552715 38.99879436 80.12736499 37.72524261 81.29549026 C16.09168657 101.74472754 1.44161284 130.20788936 -8.04038239 158.06892776 C-8.28224274 158.77195023 -8.52410309 159.47497269 -8.77329254 160.19929886 C-24.47198896 207.51058615 -17.89263513 261.34893164 3.89711761 305.56892776 C10.97603835 319.45273751 19.78133204 332.44013481 30.08461761 344.13142776 C30.9237973 345.09177933 31.76297699 346.05213089 32.62758636 347.04158401 C46.48344994 362.65885052 62.27215341 375.28100778 80.08461761 386.13142776 C77.8080519 391.68283935 73.14915413 394.26420339 68.08461761 397.13142776 C61.23920749 399.99273676 54.17813346 401.33735383 46.89711761 402.50642776 C34.35220571 404.53846074 20.99230114 407.80742855 11.08461761 416.13142776 C10.26864105 416.8004512 9.45266449 417.46947464 8.61196136 418.15877151 C-1.02157633 426.42646827 -12.15969788 437.98287753 -13.91538239 451.13142776 C-14.79224507 464.71947637 -14.79224507 464.71947637 -9.91538239 477.13142776 C-9.57635895 477.75146683 -9.23733551 478.37150589 -8.88803864 479.01033401 C-5.36516086 484.81493335 0.59480184 488.61008523 6.97524261 490.77205276 C26.11947141 494.03366211 45.23841696 486.18916651 60.70961761 475.38142776 C66.8732819 470.69958837 72.47893152 465.45481312 78.08461761 460.13142776 C79.07268402 459.25744339 79.07268402 459.25744339 80.08071136 458.36580276 C92.3268191 447.16612918 99.2496234 430.02609998 104.45961761 414.63142776 C104.71058197 413.88989456 104.96154633 413.14836136 105.22011566 412.38435745 C106.65344749 407.96595847 107.56221981 403.74796651 108.08461761 399.13142776 C108.7794223 399.43435745 109.47422699 399.73728714 110.19008636 400.04939651 C154.40198835 418.26088973 207.12164912 415.72609164 251.08461761 398.13142776 C264.09503909 392.59803536 276.54866103 386.32919461 288.08461761 378.13142776 C289.08106293 377.42631058 290.07750824 376.72119339 291.10414886 375.99470901 C316.93022709 357.14133343 337.7343985 333.82578023 352.08461761 305.13142776 C352.67001312 303.97054642 352.67001312 303.97054642 353.2672348 302.78621292 C359.92355953 289.38301989 364.34555447 275.59833078 368.08461761 261.13142776 C368.26750336 260.43291702 368.4503891 259.73440628 368.63881683 259.01472855 C380.61564985 212.23215581 370.58497453 160.70738042 347.08461761 119.13142776 C327.98191373 87.3201971 301.1651194 61.0949528 268.08461761 44.13142776 C267.43235199 43.79304886 266.78008636 43.45466995 266.10805511 43.10603714 C247.08947453 33.35435317 227.24252166 27.04729363 206.08461761 24.13142776 C205.26509613 24.01573441 204.44557465 23.90004105 203.60121918 23.78084183 C143.59181545 15.60325628 85.00883451 36.11175692 41.52016449 77.7632637 Z " fill="#FED536" transform="translate(94.9153823852539,-0.13142776489257813)"/>
<path d="M0 0 C0.85819336 0.11827148 1.71638672 0.23654297 2.60058594 0.35839844 C32.02985648 4.58408471 61.08630922 16.2404624 85 34 C85.82516113 34.59844727 85.82516113 34.59844727 86.66699219 35.20898438 C129.85605029 66.59623432 157.00996371 113.40660098 165.60546875 165.86328125 C169.09697229 193.62246286 166.81915357 221.16493515 159 248 C158.79036621 248.73847168 158.58073242 249.47694336 158.36474609 250.23779297 C152.94350466 269.00555487 144.3182333 287.0773958 133 303 C132.26007813 304.04285156 131.52015625 305.08570313 130.7578125 306.16015625 C126.51119251 311.97170713 121.99176052 317.41667999 117.109375 322.703125 C115.22100188 324.75935351 113.42019417 326.86286408 111.625 329 C97.48359167 345.06105652 79.03103656 357.48246358 60 367 C59.2260791 367.39026367 58.4521582 367.78052734 57.65478516 368.18261719 C34.19811437 379.83172329 7.27550986 387.28565399 -19 388 C-19.68030273 388.02046387 -20.36060547 388.04092773 -21.06152344 388.06201172 C-45.30425876 388.70053392 -76.28531141 387.10691077 -98 375 C-98.226875 376.155 -98.45375 377.31 -98.6875 378.5 C-106.15586173 411.34033036 -122.85256176 436.10733027 -150.8203125 454.89453125 C-164.84864548 463.6670174 -180.4638721 468.23808958 -197 467 C-206.15567318 464.71994204 -211.50616805 460.12271474 -216.66796875 452.4140625 C-221.31941494 443.98416881 -221.04519361 433.62272678 -219.5703125 424.27734375 C-214.9550488 408.57974931 -200.58529595 394.13351259 -186.5625 386.4375 C-176.66009267 381.72855706 -165.90088983 379.18415808 -155.125 377.4375 C-144.69231541 375.72652553 -134.32268583 373.24480183 -127 365 C-127 363.68 -127 362.36 -127 361 C-129.37439397 359.29007058 -131.65052582 357.8649425 -134.1875 356.4375 C-142.21940056 351.67742563 -149.07114589 346.22685178 -156 340 C-157.37671875 338.78763672 -157.37671875 338.78763672 -158.78125 337.55078125 C-176.36242623 321.95543064 -190.1355321 303.78941419 -201 283 C-201.33741211 282.36320312 -201.67482422 281.72640625 -202.02246094 281.0703125 C-225.14019864 236.86468724 -229.41632962 183.19845207 -214.83691406 135.60449219 C-210.73416108 122.83664829 -205.29131887 110.82557825 -199 99 C-198.39671875 97.84113281 -197.7934375 96.68226562 -197.171875 95.48828125 C-189.20723191 80.81392833 -178.55357631 67.98082721 -167 56 C-166.27683594 55.22527344 -165.55367187 54.45054688 -164.80859375 53.65234375 C-122.92753918 9.92019285 -59.01405698 -8.33112326 0 0 Z M-100.60546875 68.7578125 C-102.60371686 70.628929 -104.63509164 72.38993106 -106.75 74.125 C-140.0641149 102.41619133 -160.86220584 154.36893904 -164.55859375 196.890625 C-165.13633872 204.98776434 -165.2386641 213.07306992 -165.25 221.1875 C-165.25233643 221.95470367 -165.25467285 222.72190735 -165.25708008 223.51235962 C-165.27017828 234.91777049 -164.698712 245.86781301 -162 257 C-161.07960937 257.25652344 -160.15921875 257.51304687 -159.2109375 257.77734375 C-134.16101678 265.1879314 -117.84320013 283.41050359 -105.46484375 305.7734375 C-100.00672706 316.88996873 -97.65981971 329.13732286 -96.85864258 341.41650391 C-96.60376453 344.44958902 -96.19592878 346.68511445 -94.578125 349.28515625 C-90.60526671 351.92770896 -86.33017666 352.96802005 -81.75 354.1875 C-80.83347656 354.44724609 -79.91695313 354.70699219 -78.97265625 354.97460938 C-50.62532528 362.79944324 -20.74418168 356.07801279 4.64306641 342.18579102 C15.63835444 335.90468432 25.40435821 328.25995156 34.48486328 319.46386719 C36.04816564 317.9534642 37.63117133 316.46556661 39.21484375 314.9765625 C74.48799841 281.32202101 95.21000623 229.68357688 97.10717773 181.26464844 C97.38807247 168.05695564 97.05251654 155.05835036 95 142 C94.88172852 141.22269531 94.76345703 140.44539063 94.64160156 139.64453125 C89.2817889 105.76724208 72.94266966 72.40945239 45.06274414 51.46704102 C29.17414477 40.06640175 10.54438716 33.2178995 -9 32 C-10.30324219 31.91878906 -10.30324219 31.91878906 -11.6328125 31.8359375 C-44.99320205 30.81375286 -76.74367883 46.32842871 -100.60546875 68.7578125 Z " fill="#010100" transform="translate(301,24)"/>
<path d="M0 0 C5.95619866 5.10531314 7.02700003 10.50294658 8.1171875 17.96875 C8.27486603 18.95129761 8.43254456 19.93384521 8.59500122 20.94616699 C9.09816366 24.08709217 9.58233613 27.23048275 10.0625 30.375 C12.49316464 46.21312066 15.61345593 61.5056597 20.1875 76.875 C21.2717627 76.32215332 22.35602539 75.76930664 23.47314453 75.19970703 C26.97108604 73.42021559 30.48303461 71.67204707 34.00683594 69.94433594 C35.38215696 69.26991743 36.75549739 68.59143052 38.12597656 67.90722656 C45.97201953 64.02842593 53.35063884 60.95621331 62.1875 62.875 C65.37857349 64.32154774 67.37748809 65.85831348 69.1875 68.875 C70.19301301 73.15218219 69.79686235 76.46093963 68.06640625 80.4765625 C65.56693933 83.66715022 63.30761081 84.34815975 59.5 85.6875 C53.68812058 87.82713636 48.14451289 90.25135566 42.625 93.0625 C41.97120361 93.39548096 41.31740723 93.72846191 40.64379883 94.0715332 C37.7063009 95.57523888 34.77493611 97.08972623 31.84765625 98.61328125 C29.1875 99.875 29.1875 99.875 27.1875 99.875 C35.48582596 123.29515117 44.23075969 146.36944209 56.19165039 168.2175293 C59.1875 173.69451768 59.1875 173.69451768 59.1875 175.875 C65.87146394 171.02584969 72.15064118 165.75485756 78.41699219 160.38671875 C80.21173924 158.85430373 82.0150553 157.33251303 83.8203125 155.8125 C92.71714067 148.2973898 101.10826432 140.57008281 108.58203125 131.6015625 C111.72708485 128.21929075 113.42262874 126.94784488 118.125 126.5 C122.85382012 126.69337183 125.56545331 128.3648186 129 131.5625 C130.78830322 135.04498522 131.00286417 138.11603298 130.1875 141.875 C128.62193865 144.92975385 126.47340024 147.33023582 124.1875 149.875 C122.91712891 151.30585938 122.91712891 151.30585938 121.62109375 152.765625 C118.85512943 155.84591454 116.03017641 158.8653469 113.1875 161.875 C112.14722656 162.97908203 112.14722656 162.97908203 111.0859375 164.10546875 C106.66953765 168.65817724 101.90323568 172.63647933 96.95703125 176.6015625 C94.38015512 178.71685433 91.93923899 180.91634302 89.5 183.1875 C85.16346248 187.1342364 80.61367964 190.7200735 75.9375 194.25 C75.26372314 194.76216064 74.58994629 195.27432129 73.89575195 195.80200195 C63.32135552 203.68473384 63.32135552 203.68473384 56.31640625 203.24609375 C50.12029396 202.16603748 46.58922758 199.79710136 42.8515625 194.671875 C40.050014 190.20610257 37.62065082 185.54834221 35.1875 180.875 C34.6817041 179.92334961 34.1759082 178.97169922 33.65478516 177.99121094 C24.86787306 161.39103544 17.71117193 144.46596106 11.1875 126.875 C10.79320801 125.82296387 10.39891602 124.77092773 9.99267578 123.68701172 C9.62513184 122.69588379 9.25758789 121.70475586 8.87890625 120.68359375 C8.55220947 119.80372803 8.2255127 118.9238623 7.88891602 118.01733398 C7.1875 115.875 7.1875 115.875 7.1875 113.875 C-1.68725125 120.37083803 -1.68725125 120.37083803 -9.75 127.8125 C-13.31531233 131.53588037 -16.63458962 133.55738807 -21.8125 134.3125 C-26.2846976 133.66030452 -29.39229629 131.68253199 -32.1875 128.125 C-33.17801048 124.55916227 -33.66511769 121.4756701 -32.8125 117.875 C-30.8445021 114.81819853 -28.41169905 112.40085304 -25.8125 109.875 C-25.31226318 109.35429932 -24.81202637 108.83359863 -24.29663086 108.29711914 C-20.00835156 103.870528 -15.45289706 100.09594203 -10.5 96.4375 C-9.78521484 95.89673828 -9.07042969 95.35597656 -8.33398438 94.79882812 C-3.07079646 90.875 -3.07079646 90.875 -0.8125 90.875 C-1.17601562 89.66070312 -1.53953125 88.44640625 -1.9140625 87.1953125 C-14.08880745 45.90083206 -14.08880745 45.90083206 -13.8125 29.875 C-24.02764069 36.38900276 -33.10211397 44.08262592 -42.21557617 52.02563477 C-47.65516428 56.76038255 -53.20583168 61.33943432 -58.8125 65.875 C-60.16599841 66.98620758 -61.5188122 68.09824938 -62.87109375 69.2109375 C-64.30984634 70.39068536 -65.74864832 71.57037299 -67.1875 72.75 C-67.86611084 73.31009766 -68.54472168 73.87019531 -69.24389648 74.44726562 C-75.26095971 79.36427497 -79.43025968 82.51938201 -87.43359375 82.3046875 C-91.08009001 81.64604285 -92.66805143 79.78038193 -94.8125 76.875 C-96.47259476 73.55481047 -96.52391961 70.43845001 -95.8125 66.875 C-91.45539712 58.82457163 -81.77437524 52.97448605 -74.72509766 47.39111328 C-68.56868207 42.51093192 -62.52396175 37.51773107 -56.6237793 32.33154297 C-44.8755904 22.02375091 -32.69113738 12.27849627 -19.75 3.5 C-19.08436035 3.02933105 -18.4187207 2.55866211 -17.73291016 2.07373047 C-12.03816615 -1.6673111 -6.42895185 -2.57158074 0 0 Z " fill="#020100" transform="translate(252.8125,119.125)"/>
<path d="M0 0 C9.14125784 8.96546442 16.47717773 19.02954154 23 30 C23.37125 30.62052246 23.7425 31.24104492 24.125 31.88037109 C34.98680454 50.34638169 41.82389979 70.85425275 45 92 C45.18820312 93.17949219 45.37640625 94.35898438 45.5703125 95.57421875 C48.99386495 124.67799571 45.31727087 154.99234271 34 182 C33.53787109 183.10625732 33.53787109 183.10625732 33.06640625 184.23486328 C22.03053178 210.10162507 4.39911461 233.89925953 -18 251 C-18.91007812 251.72574219 -19.82015625 252.45148438 -20.7578125 253.19921875 C-33.71478762 263.31413257 -48.89559972 273.06336882 -65 277 C-61.88363349 273.7950689 -58.72125604 270.91990034 -55.1875 268.1875 C-42.56503055 257.93280822 -31.60048216 246.09745374 -22 233 C-21.36964844 232.15308594 -20.73929687 231.30617188 -20.08984375 230.43359375 C6.29153525 193.95637951 21.78034318 148.98500917 23 104 C23.03287109 102.90316895 23.03287109 102.90316895 23.06640625 101.78417969 C23.92486756 68.66188081 18.30759987 35.50105044 2.6015625 6.0546875 C1 3 1 3 0 0 Z " fill="#FBD237" transform="translate(398,100)"/>
<path d="M0 0 C0.99 0.495 0.99 0.495 2 1 C1.34515625 1.52207031 0.6903125 2.04414062 0.015625 2.58203125 C-10.003414 10.6623579 -19.87760587 18.96030253 -28 29 C-28.80695313 29.969375 -29.61390625 30.93875 -30.4453125 31.9375 C-49.14904925 54.75537994 -62.56082616 81.15551225 -72 109 C-72.41765625 110.21171875 -72.8353125 111.4234375 -73.265625 112.671875 C-78.65993423 129.88229017 -82.14283151 149.06728547 -82.16796875 167.1171875 C-82.17129715 167.97321564 -82.17462555 168.82924377 -82.17805481 169.71121216 C-82.18309242 171.51808134 -82.18546412 173.32495974 -82.18530273 175.13183594 C-82.18746624 177.83284831 -82.20559216 180.53343591 -82.22460938 183.234375 C-82.26018823 194.62508322 -81.52247711 205.71210458 -80 217 C-82.92871433 214.07128567 -83.67117618 210.43294469 -84.875 206.5625 C-85.13821045 205.72154785 -85.4014209 204.8805957 -85.67260742 204.01416016 C-94.52508917 174.94171322 -96.36968297 143.59814805 -89 114 C-88.79632813 113.13938965 -88.59265625 112.2787793 -88.3828125 111.39208984 C-80.1819693 77.30417139 -60.57910182 44.11209403 -33 22 C-32.03449219 21.22011719 -31.06898438 20.44023438 -30.07421875 19.63671875 C-22.71856892 13.79072421 -15.10962906 8.76071342 -7 4 C-6.24074219 3.53207031 -5.48148437 3.06414062 -4.69921875 2.58203125 C-3.17111767 1.65504654 -1.59146202 0.81341392 0 0 Z " fill="#F9D138" transform="translate(195,64)"/>
<path d="M0 0 C0.495 0.99 0.495 0.99 1 2 C-0.0410605 4.26476319 -1.12736268 6.35149556 -2.375 8.5 C-2.74004639 9.1300293 -3.10509277 9.76005859 -3.48120117 10.40917969 C-6.99213642 16.27940965 -11.13032991 21.19377838 -16 26 C-16.83273438 26.84304688 -17.66546875 27.68609375 -18.5234375 28.5546875 C-29.80556143 39.43978654 -44.69866032 48.30599488 -60.671875 49.21875 C-63 49 -63 49 -65.6875 47.0625 C-67.71800241 42.32466105 -67.97971652 38.60943728 -66.1875 33.8359375 C-60.56075711 22.77782474 -51.62280384 13.89886437 -39.8046875 9.92578125 C-35.89226221 8.83804103 -31.96041998 7.89182175 -28 7 C-27.09942871 6.79487793 -26.19885742 6.58975586 -25.27099609 6.37841797 C-17.31118404 4.56676421 -17.31118404 4.56676421 -13.58886719 3.74975586 C-8.95743528 2.72503283 -4.46891906 1.62100558 0 0 Z " fill="#FBD337" transform="translate(171,419)"/>
<path d="M0 0 C0 3 0 3 -1.8359375 5.17651367 C-2.67382812 5.99869385 -3.51171875 6.82087402 -4.375 7.66796875 C-5.27734375 8.56064453 -6.1796875 9.45332031 -7.109375 10.37304688 C-8.0727573 11.31136157 -9.03630108 12.2495105 -10 13.1875 C-10.96422346 14.13667769 -11.92777392 15.08653956 -12.890625 16.03710938 C-15.25386746 18.36490319 -17.62381482 20.68543133 -20 23 C-20.66 22.67 -21.32 22.34 -22 22 C-21.56429687 21.57589844 -21.12859375 21.15179688 -20.6796875 20.71484375 C-17.66354138 17.74439682 -14.75398096 14.76981572 -12.0625 11.5 C-8.75792355 7.55237084 -4.92273371 4.31419507 -1 1 C-0.67 0.67 -0.34 0.34 0 0 Z " fill="#E7C33C" transform="translate(205,88)"/>
<path d="M0 0 C0.66 0.33 1.32 0.66 2 1 C-3.61 6.61 -9.22 12.22 -15 18 C-15.66 17.67 -16.32 17.34 -17 17 C-11.62789574 10.92530665 -6.3343346 5.09500827 0 0 Z " fill="#E7C33C" transform="translate(161,87)"/>
<path d="M0 0 C0 3 0 3 -2.40625 5.69921875 C-3.4299968 6.70302243 -4.4616054 7.69885649 -5.5 8.6875 C-6.02464844 9.19861328 -6.54929687 9.70972656 -7.08984375 10.23632812 C-8.38660904 11.49772708 -9.69246117 12.74977212 -11 14 C-11.66 13.67 -12.32 13.34 -13 13 C-11.58791833 11.39179588 -10.17013964 9.78859292 -8.75 8.1875 C-7.96109375 7.29417969 -7.1721875 6.40085937 -6.359375 5.48046875 C-4.34120555 3.35871775 -2.40083295 1.65745577 0 0 Z " fill="#DFBD3B" transform="translate(122,433)"/>
<path d="M0 0 C0.66 0.33 1.32 0.66 2 1 C-3.445 5.455 -3.445 5.455 -9 10 C-9.66 9.67 -10.32 9.34 -11 9 C-11 8.01 -11 7.02 -11 6 C-9.21385682 4.96953278 -7.42089982 3.95086764 -5.625 2.9375 C-4.62726563 2.36902344 -3.62953125 1.80054687 -2.6015625 1.21484375 C-1.74304688 0.81394531 -0.88453125 0.41304688 0 0 Z " fill="#DDBD42" transform="translate(195,64)"/>
<path d="M0 0 C0 0.99 0 1.98 0 3 C-0.33 3.33 -0.66 3.66 -1 4 C-0.34 4.66 0.32 5.32 1 6 C-0.6210103 6.69685498 -2.24696066 7.38222861 -3.875 8.0625 C-4.77992188 8.44535156 -5.68484375 8.82820313 -6.6171875 9.22265625 C-9 10 -9 10 -11 9 C-7.37 6.03 -3.74 3.06 0 0 Z " fill="#DDBC42" transform="translate(344,367)"/>
<path d="M0 0 C0.99 0.33 1.98 0.66 3 1 C3.33 4.3 3.66 7.6 4 11 C1.73030256 8.73030256 1.00868171 7.02604513 0 4 C0 2.68 0 1.36 0 0 Z " fill="#E0C047" transform="translate(111,270)"/>
<path d="M0 0 C2.93200474 2.85276137 5.64315404 5.65079784 8 9 C6.68 9 5.36 9 4 9 C0 2.25 0 2.25 0 0 Z " fill="#B49A3B" transform="translate(398,100)"/>
</svg>
